<?xml version="1.0"?>
<svg version="1.1" xmlns="http://www.w3.org/2000/svg" width="600" height="200" style=""><path fill="#ffffff" d="M75,64.8l-6.3,0l0,32l-42.2,0l0-32l-6.3,0l0,70.2l6.3,0l0-31.9l42.2,0l0,31.9l6.3,0l0-70.2z M92.184,135.1l6.3,0l0-70.3l-6.3,0l0,70.3z M114.168,134.8l6.2,0l0-42.3q0-8.4,6.4-14.8t14.8-6.4q8.2,0,14.8,6.4q6.3,6.3,6.3,14.8l0,42.3l6.4,0l0-42.3q0-8.6,6.4-14.8q6.4-6.4,14.7-6.4q8.4,0,14.8,6.4t6.4,14.8l0,42.3l6.2,0l0-42.3q0-11.4-8-19.4t-19.4-8q-7.5,0-14.1,4.1q-6.7,4.2-9.6,10.7q-3.9-6.7-10.5-10.7q-6.9-4.1-14.4-4.1q-11.3,0-19.3,8q-8.1,8.1-8.1,19.4l0,42.3z M259.252,64.6q-11.2,0-18.8,8.1q-7.5,8-7.5,19.5l0,42.8l6.3,0l0-31.4l40.2,0l0,31.4l6.3,0l0-42.8q0-11.5-7.5-19.5q-7.8-8.1-19-8.1z M279.452,97.4l-40.2,0l0-5.2q0-8.6,5.8-14.9q5.9-6.4,14.2-6.4t14.4,6.4q5.8,6.3,5.8,14.9l0,5.2z M300.936,135l6.2,0l0-42.4q0-8.4,6.4-15q6.4-6.4,14.8-6.4t15,6.4q6.4,6.6,6.4,15l0,42.4l6.2,0l0-42.4q0-11.4-8.1-19.5t-19.5-8.1q-11.2,0-19.3,8.1t-8.1,19.5l0,42.4z M387.22,72.3l37.7,0l0-7.6l-37.7,0q-7.4,0-12.4,5.8q-5.1,5.9-5.1,14.3q0,7.6,5.1,13.2q5,5.7,12.4,5.7l10,0l10.2,0q4.5,0,8,3.8q3.3,4,3.3,8.7q0,5.6-3.25,9.1t-8.05,3.5l-37.7,0l0,6.2l37.7,0q7.5,0,12.5-5.2t5-13.6q0-7.6-5-13.2q-5.1-5.6-12.5-5.6l-10.2,0l-10,0q-4.6,0-7.9-4q-3.4-3.7-3.4-8.6q0-5.6,3.25-9.05t8.05-3.45z M494.404,64.8l-6.3,0l0,32l-42.2,0l0-32l-6.3,0l0,70.2l6.3,0l0-31.9l42.2,0l0,31.9l6.3,0l0-70.2z M565.388,64.9l-6.3,0l0,42.7q0,9.2-6.4,15.4q-6.3,6-15,6q-9.5,0-15.3-6q-5.9-6.1-5.9-15.4l0-42.7l-6.4,0l0,42.7q0,11.4,7.8,19.4q7.9,8.2,19.8,8.2q11.1,0,19.5-8.2q8.2-8,8.2-19.4l0-42.7z"/><path fill="#ffffff" d=""/></svg>
